<?xml version="1.0" standalone="no"?><!DOCTYPE svg PUBLIC "-//W3C//DTD SVG 1.1//EN" "http://www.w3.org/Graphics/SVG/1.1/DTD/svg11.dtd"><svg t="1764568666533" class="icon" viewBox="0 0 1024 1024" version="1.1" xmlns="http://www.w3.org/2000/svg" p-id="20447" xmlns:xlink="http://www.w3.org/1999/xlink" width="200" height="200"><path d="M689.92 0H195.84C129.28 0 75.52 53.76 75.52 117.76v788.48C75.52 970.24 129.28 1024 195.84 1024h632.32c66.56 0 120.32-53.76 120.32-117.76V256L689.92 0z" fill="#2B8EF3" p-id="20448"></path><path d="M689.92 0l256 256h-204.8c-28.16 0-51.2-23.04-51.2-51.2V0z" fill="#72B7FB" p-id="20449"></path><path d="M280.32 358.4h460.8v460.8H280.32z" fill="#FFFFFF" fill-opacity="0" p-id="20450"></path><path d="M723.2 540.16v-7.68c0-46.08-35.84-81.92-81.92-81.92h-138.24c-2.56-2.56-5.12-7.68-7.68-10.24-23.04-28.16-46.08-56.32-81.92-56.32h-33.28c-46.08 0-79.36 35.84-79.36 81.92v74.24h422.4zM298.24 576v135.68c0 46.08 35.84 81.92 81.92 81.92h261.12c46.08 0 81.92-38.4 81.92-81.92v-135.68H298.24z" fill="#FFFFFF" p-id="20451"></path></svg>