<?xml version="1.0" standalone="no"?><!DOCTYPE svg PUBLIC "-//W3C//DTD SVG 1.1//EN" "http://www.w3.org/Graphics/SVG/1.1/DTD/svg11.dtd"><svg t="1764568640249" class="icon" viewBox="0 0 1024 1024" version="1.1" xmlns="http://www.w3.org/2000/svg" p-id="19859" xmlns:xlink="http://www.w3.org/1999/xlink" width="200" height="200"><path d="M689.92 0H195.84C129.28 0 75.52 53.76 75.52 117.76v788.48C75.52 970.24 129.28 1024 195.84 1024h632.32c66.56 0 120.32-53.76 120.32-117.76V256L689.92 0z" fill="#2B8EF3" p-id="19860"></path><path d="M449.28 768l61.44-230.4 61.44 230.4h53.76L715.52 460.8h-56.32l-58.88 232.96h-2.56L536.32 460.8h-51.2l-61.44 232.96h-2.56L362.24 460.8H305.92l89.6 307.2z" fill="#FFFFFF" p-id="19861"></path><path d="M689.92 0l256 256h-204.8c-28.16 0-51.2-23.04-51.2-51.2V0z" fill="#72B7FB" p-id="19862"></path></svg>