<?xml version="1.0" standalone="no"?><!DOCTYPE svg PUBLIC "-//W3C//DTD SVG 1.1//EN" "http://www.w3.org/Graphics/SVG/1.1/DTD/svg11.dtd"><svg t="1764568647648" class="icon" viewBox="0 0 1024 1024" version="1.1" xmlns="http://www.w3.org/2000/svg" p-id="20006" xmlns:xlink="http://www.w3.org/1999/xlink" width="200" height="200"><path d="M689.92 0H195.84C129.28 0 75.52 53.76 75.52 117.76v788.48C75.52 970.24 129.28 1024 195.84 1024h632.32c66.56 0 120.32-53.76 120.32-117.76V256L689.92 0z" fill="#23D7BB" p-id="20007"></path><path d="M689.92 468.48v-51.2c0-2.56-2.56-5.12-5.12-7.68h-7.68l-250.88 79.36c-5.12 0-7.68 5.12-5.12 7.68v215.04c-15.36-2.56-30.72 0-43.52 7.68-17.92 7.68-30.72 17.92-38.4 30.72-7.68 15.36-10.24 30.72-2.56 43.52 5.12 10.24 15.36 17.92 28.16 23.04 5.12 2.56 15.36 2.56 23.04 2.56 12.8 0 23.04-2.56 35.84-7.68 20.48-7.68 38.4-25.6 43.52-43.52 2.56-2.56 2.56-7.68 2.56-10.24v-2.56-5.12V537.6l174.08-53.76v148.48c-15.36-2.56-30.72 0-43.52 7.68-38.4 17.92-56.32 51.2-43.52 76.8 7.68 15.36 28.16 25.6 51.2 25.6 12.8 0 23.04-2.56 35.84-7.68 23.04-10.24 38.4-25.6 43.52-46.08v-7.68-5.12-207.36h2.56z" fill="#FFFFFF" p-id="20008"></path><path d="M689.92 0l256 256h-204.8c-28.16 0-51.2-23.04-51.2-51.2V0z" fill="#42F4D8" p-id="20009"></path></svg>