<?xml version="1.0" standalone="no"?><!DOCTYPE svg PUBLIC "-//W3C//DTD SVG 1.1//EN" "http://www.w3.org/Graphics/SVG/1.1/DTD/svg11.dtd"><svg t="1764568654964" class="icon" viewBox="0 0 1024 1024" version="1.1" xmlns="http://www.w3.org/2000/svg" p-id="20153" xmlns:xlink="http://www.w3.org/1999/xlink" width="200" height="200"><path d="M689.92 0H195.84C129.28 0 75.52 53.76 75.52 117.76v788.48C75.52 970.24 129.28 1024 195.84 1024h632.32c66.56 0 120.32-53.76 120.32-117.76V256L689.92 0z" fill="#6F76FA" p-id="20154"></path><path d="M615.68 657.92v-84.48c0-5.12 2.56-10.24 5.12-12.8l56.32-56.32c17.92-20.48 38.4-25.6 38.4-5.12v232.96c0 20.48-20.48 15.36-40.96-5.12l-56.32-56.32c-2.56-5.12-2.56-7.68-2.56-12.8z m-25.6 53.76c0 17.92-15.36 33.28-30.72 33.28h-222.72c-15.36 0-30.72-15.36-30.72-33.28v-192c0-17.92 15.36-33.28 30.72-33.28h220.16c17.92 0 30.72 15.36 30.72 33.28v192z" fill="#FFFFFF" p-id="20155"></path><path d="M689.92 0l256 256h-204.8c-28.16 0-51.2-23.04-51.2-51.2V0z" fill="#AFB3FF" p-id="20156"></path></svg>