<?xml version="1.0" standalone="no"?><!DOCTYPE svg PUBLIC "-//W3C//DTD SVG 1.1//EN" "http://www.w3.org/Graphics/SVG/1.1/DTD/svg11.dtd"><svg t="1764568661365" class="icon" viewBox="0 0 1024 1024" version="1.1" xmlns="http://www.w3.org/2000/svg" p-id="20300" xmlns:xlink="http://www.w3.org/1999/xlink" width="200" height="200"><path d="M382.72 51.2h256v768H382.72z" fill="#FFFFFF" p-id="20301"></path><path d="M544 616.96v66.56h-66.56v-66.56h66.56zM689.92 0H195.84C129.28 0 75.52 53.76 75.52 117.76v788.48C75.52 970.24 129.28 1024 195.84 1024h632.32c66.56 0 120.32-53.76 120.32-117.76V256L689.92 0z m-112.64 714.24h-133.12v-197.12h133.12v197.12z m0-488.96H510.72v66.56h66.56V358.4H510.72v66.56h66.56V486.4H510.72v-66.56h-66.56v-66.56H510.72v-66.56h-66.56V225.28H510.72V158.72h-66.56V94.72H510.72v66.56h66.56v64z" fill="#566485" p-id="20302"></path><path d="M689.92 0l256 256h-204.8c-28.16 0-51.2-23.04-51.2-51.2V0z" fill="#788BB6" p-id="20303"></path></svg>